<?xml version="1.0" encoding="utf-8"?>
<!-- Generator: Adobe Illustrator 17.1.0, SVG Export Plug-In . SVG Version: 6.00 Build 0)  -->
<!DOCTYPE svg PUBLIC "-//W3C//DTD SVG 1.1//EN" "http://www.w3.org/Graphics/SVG/1.1/DTD/svg11.dtd">
<svg version="1.1" id="Layer_1" xmlns="http://www.w3.org/2000/svg" xmlns:xlink="http://www.w3.org/1999/xlink" x="0px" y="0px"
	 viewBox="420 220 120 120.1" style="enable-background:new 420 220 120 120.1;" xml:space="preserve">
<g>
	<path d="M480,220c-33.2,0-60,26.9-60,60s26.9,60,60,60c33.2,0,60-26.9,60-60S513.2,220,480,220L480,220z M480,330.2
		c-27.7,0-50.2-22.5-50.2-50.2s22.5-50.1,50.1-50.1c27.7,0,50.2,22.5,50.2,50.2C530.2,307.7,507.7,330.2,480,330.2L480,330.2z"/>
	<path d="M517.1,268.3c0,0,0-0.1,0-0.1c0-0.1,0-0.2-0.1-0.3c0-0.1,0-0.1,0-0.2c0-0.1-0.1-0.2-0.1-0.2c0-0.1,0-0.1-0.1-0.2
		c0-0.1-0.1-0.1-0.1-0.2c0-0.1-0.1-0.1-0.1-0.1c0-0.1-0.1-0.1-0.1-0.2c0,0-0.1-0.1-0.1-0.1c-0.1-0.1-0.1-0.1-0.2-0.2
		c0,0-0.1-0.1-0.1-0.1c-0.1-0.1-0.1-0.1-0.2-0.2c0,0-0.1-0.1-0.1-0.1c0,0,0,0-0.1,0l-33.9-22.6c-1.1-0.7-2.5-0.7-3.5,0L444.3,266
		c0,0,0,0-0.1,0c0,0-0.1,0.1-0.1,0.1c-0.1,0-0.1,0.1-0.2,0.2c0,0-0.1,0.1-0.1,0.1c-0.1,0.1-0.1,0.1-0.2,0.2c0,0-0.1,0.1-0.1,0.1
		c0,0.1-0.1,0.1-0.1,0.2c0,0-0.1,0.1-0.1,0.1c0,0.1-0.1,0.1-0.1,0.2c0,0.1,0,0.1-0.1,0.2c0,0.1-0.1,0.2-0.1,0.2c0,0.1,0,0.1-0.1,0.2
		c0,0.1,0,0.2-0.1,0.3c0,0,0,0.1,0,0.1c0,0.1,0,0.3,0,0.4v22.7c0,0.1,0,0.3,0,0.4c0,0,0,0.1,0,0.1c0,0.1,0,0.2,0.1,0.3
		c0,0.1,0,0.1,0.1,0.2c0,0.1,0.1,0.2,0.1,0.2c0,0.1,0,0.1,0.1,0.2c0,0.1,0.1,0.1,0.1,0.2c0,0,0.1,0.1,0.1,0.1c0,0.1,0.1,0.1,0.1,0.2
		c0,0,0.1,0.1,0.1,0.1c0.1,0.1,0.1,0.1,0.2,0.2c0,0,0.1,0.1,0.1,0.1c0.1,0.1,0.1,0.1,0.2,0.2c0,0,0.1,0.1,0.1,0.1c0,0,0,0,0.1,0
		l33.9,22.7c0.5,0.4,1.2,0.5,1.8,0.5c0.6,0,1.2-0.2,1.8-0.5l33.9-22.6c0,0,0,0,0.1,0c0,0,0.1-0.1,0.1-0.1c0.1,0,0.1-0.1,0.2-0.2
		c0,0,0.1-0.1,0.1-0.1c0.1-0.1,0.1-0.1,0.2-0.2c0,0,0.1-0.1,0.1-0.1c0-0.1,0.1-0.1,0.1-0.2c0,0,0.1-0.1,0.1-0.1
		c0-0.1,0.1-0.1,0.1-0.2c0-0.1,0-0.1,0.1-0.2c0-0.1,0.1-0.2,0.1-0.2c0-0.1,0-0.1,0-0.2c0-0.1,0-0.2,0.1-0.3c0,0,0-0.1,0-0.1
		c0-0.1,0-0.3,0-0.4v-22.6C517.2,268.6,517.2,268.5,517.1,268.3L517.1,268.3z M483.2,252l25,16.7l-11.2,7.5l-13.8-9.3V252z
		 M476.8,252.1v14.9l-13.8,9.2l-11.2-7.5L476.8,252.1L476.8,252.1z M449.3,274.7l8,5.3l-8,5.3V274.7z M476.8,308l-25-16.6l11.2-7.5
		l13.8,9.3V308z M480,287.5l-11.3-7.5l11.3-7.5l11.3,7.5L480,287.5z M483.2,308v-14.9l13.8-9.3l11.2,7.5L483.2,308z M510.8,285.3
		l-8-5.3l8-5.3V285.3z"/>
</g>
</svg>
