<?xml version="1.0" encoding="utf-8"?>
<!-- Generator: Adobe Illustrator 17.1.0, SVG Export Plug-In . SVG Version: 6.00 Build 0)  -->
<!DOCTYPE svg PUBLIC "-//W3C//DTD SVG 1.1//EN" "http://www.w3.org/Graphics/SVG/1.1/DTD/svg11.dtd">
<svg version="1.1" id="Layer_1" xmlns="http://www.w3.org/2000/svg" xmlns:xlink="http://www.w3.org/1999/xlink" x="0px" y="0px"
	 viewBox="0 0 703.7 151.3" style="enable-background:new 0 0 703.7 151.3;" xml:space="preserve">
<style type="text/css">
	.st0{fill:#47535B;}
	.st1{fill:#6FBC6D;}
</style>
<g>
	<path class="st0" d="M201.5,111.3c-13.2,0-19.1-9-19.1-20.9v-42c0-4.1,3.1-7.4,7.1-7.4c3.9,0,7.1,3.3,7.1,7.4v7.2h13.3
		c3.5,0,6.6,2.7,6.6,6.4c0,3.5-3.1,6.2-6.6,6.2h-13.3v21.9c0,5.1,2.2,7.9,6.9,7.9c2.3,0,4.7-0.6,6.6-1.2c5.4-1.3,8.8,2.1,8.8,6.1
		c0,2.3-1.2,4.8-4.5,6.3C210.8,110.8,205.6,111.3,201.5,111.3z"/>
	<path class="st0" d="M263.4,61c0,2.9-2.2,6.7-6.7,6.7c-2.4,0-4.8-1.1-8-1c-3.5,0.1-5.5,2-5.5,6.9v30.1c0,4-3.1,7.2-7.1,7.2
		c-3.9,0-7.1-3.2-7.1-7.2V71c0-11.1,6.5-18.2,18.7-18.2c3.5,0,7,0.3,9.1,0.9C261.2,54.9,263.4,57.5,263.4,61z"/>
	<path class="st0" d="M318.7,79.8c0,4.1-2.1,7.1-7.3,7.1h-28.3V88c0,6.7,5.1,10.3,12.2,10.3c3.8,0,7.8-1,11.4-2.3
		c5.6-2.1,9.4,1.7,9.4,5.6c0,2-0.7,4.3-3.6,6c-3.9,2.3-10.7,3.7-17.5,3.7c-14.7,0-24.6-9.3-25.6-22.5c-0.3-4.1-0.2-10,0-13.3
		c1.3-13.8,11.2-22.7,25.1-22.7c14.5,0,24.4,9.7,24.4,24.7V79.8z M303.8,77.3c0.7,0,1.2-0.4,1.2-1.3c0.3-6.5-3.7-10.8-10.6-10.8
		c-7.6,0-11.3,4.8-11.3,12.1H303.8z"/>
	<path class="st0" d="M378.8,79.8c0,4.1-2.1,7.1-7.3,7.1h-28.3V88c0,6.7,5.1,10.3,12.2,10.3c3.8,0,7.8-1,11.4-2.3
		c5.6-2.1,9.4,1.7,9.4,5.6c0,2-0.7,4.3-3.6,6c-3.9,2.3-10.7,3.7-17.5,3.7c-14.7,0-24.6-9.3-25.6-22.5c-0.3-4.1-0.2-10,0-13.3
		c1.3-13.8,11.2-22.7,25.1-22.7c14.5,0,24.4,9.7,24.4,24.7V79.8z M363.9,77.3c0.7,0,1.2-0.4,1.2-1.3c0.3-6.5-3.7-10.8-10.6-10.8
		c-7.6,0-11.3,4.8-11.3,12.1H363.9z"/>
	<path class="st0" d="M405.3,57c2.3-2.1,7.8-4.1,13.4-4.1c13.5,0,21.5,8.1,21.5,23.3v27.3c0,4.3-3,7.6-7.2,7.6c-3.9,0-7-3.3-7-7.6
		V76.9c0-6.5-3.7-10.1-9.6-10.1c-4.5,0-8.8,2-11.1,4.5v32.4c0,4-3,7.3-7,7.3c-3.9,0-7.2-3.3-7.2-7.3V41.5c0-4.1,3.1-7.3,7.1-7.3
		c3.9,0,7.1,3.2,7.1,7.3V57z"/>
	<path class="st0" d="M478.1,111.3c-13.9,0-24.5-8.9-25.5-21.6c-0.3-4.3-0.3-11,0-15.2c1.1-12.8,11.6-21.7,25.5-21.7
		c14,0,24.4,8.9,25.4,21.7c0.3,4.3,0.3,10.8,0,15.1C502.5,102.4,492.2,111.3,478.1,111.3z M489.4,76.8c-0.3-6.1-4.6-10.3-11.3-10.3
		c-6.7,0-10.8,4.3-11.4,10.3c-0.2,2.9-0.2,7.9,0,10.6c0.5,6.1,4.7,10.3,11.4,10.3c6.7,0,10.8-4.3,11.3-10.3
		C489.6,84.6,489.6,79.6,489.4,76.8z"/>
	<path class="st0" d="M516,60.7c0-4.3,2.6-7.6,7-7.6c4,0,7.2,3.3,7.2,7.6v27.1c0,6.4,4.1,9.9,10.2,9.9c4.7,0,8.2-1.4,10.4-2.8V60.5
		c0-4,3-7.3,7.1-7.3c3.9,0,7.1,3.3,7.1,7.3v39.8c0,2.4-0.6,3.8-2.6,5c-3.3,2.3-11.1,6.1-22.4,6.1c-15.3,0-24.1-8.3-24.1-23.3V60.7z"
		/>
	<path class="st0" d="M621.3,92.8c0,11.9-9.9,18.5-22.2,18.5c-10,0-16.4-2.9-20.3-6.2c-2.6-2.1-3.3-6.2-1.3-8.8
		c2.1-2.9,5.7-3.5,9.3-1.3c3.3,2.1,7.7,3.5,12.7,3.5c5.5,0,8.1-2,8.1-4.9c0-2.3-1.7-3.9-6.2-5c-3.8-0.9-3.7-0.7-7.9-1.8
		c-8.7-2.2-15.5-7.1-15.5-16.3c0-11.5,9.3-17.8,21.7-17.8c6.7,0,13.6,1.7,17.3,4.8c3.1,2.6,2.9,6.9,0.6,9.5
		c-2.1,2.3-5.7,2.7-9.3,0.9c-2.8-1.4-6.5-2.3-9.3-2.3c-5.3,0-7.6,2-7.6,4.6c0,2.2,1.6,3.7,6.4,4.8l7.6,1.7
		C616.1,79.2,621.3,84.4,621.3,92.8z"/>
	<path class="st0" d="M680.3,79.8c0,4.1-2.1,7.1-7.3,7.1h-28.3V88c0,6.7,5.1,10.3,12.2,10.3c3.8,0,7.8-1,11.4-2.3
		c5.6-2.1,9.4,1.7,9.4,5.6c0,2-0.7,4.3-3.6,6c-3.9,2.3-10.7,3.7-17.5,3.7c-14.7,0-24.6-9.3-25.6-22.5c-0.3-4.1-0.2-10,0-13.3
		c1.3-13.8,11.2-22.7,25.1-22.7c14.5,0,24.4,9.7,24.4,24.7V79.8z M665.4,77.3c0.7,0,1.2-0.4,1.2-1.3c0.3-6.5-3.7-10.8-10.6-10.8
		c-7.6,0-11.3,4.8-11.3,12.1H665.4z"/>
</g>
<g>
	<path class="st0" d="M689.4,61.6c0,0.7-0.5,1.2-1.2,1.2c-0.7,0-1.3-0.6-1.3-1.2v-5.7h-1.8c-0.6,0-1.2-0.5-1.2-1.2
		c0-0.7,0.5-1.2,1.2-1.2h6.1c0.6,0,1.2,0.5,1.2,1.2c0,0.6-0.5,1.2-1.2,1.2h-1.8V61.6z M696.9,54.9l1.1,4.6l1.1-4.6
		c0.2-0.9,1-1.5,1.8-1.5c1,0,1.7,0.6,1.9,1.7l1,6.1c0.1,0.7-0.1,1.4-0.9,1.6c-0.9,0.2-1.4-0.3-1.5-1.1l-0.7-5.1l-1.2,4.8
		c-0.2,0.8-0.7,1.4-1.5,1.4c-0.8,0-1.3-0.5-1.5-1.4l-1.2-4.8l-0.7,5.1c-0.1,0.7-0.7,1.2-1.5,1.1c-0.7-0.1-1-0.9-0.9-1.6l1-6
		c0.2-1.2,1-1.7,1.9-1.7C695.9,53.4,696.7,54,696.9,54.9z"/>
</g>
<path class="st1" d="M122.9,27.6c-5-2.8-13,1.7-17.9,10.2l-8.8,15.3c-3.2,6.4-2.8,13.9,1.3,19.8l0.3,0.4c4.1,5.9,9.6,11.3,11.4,13.2
	c1.1,1.1,1.9,2.5,2.3,4.1c1.5,5.3-1.6,10.8-6.9,12.3c-5.3,1.5-10.8-1.6-12.3-6.9c-0.4-1.3-0.5-2.7-0.3-4c0.3-2.2-0.4-5.8-3.6-9.3
	c-3.2-3.5-9.6,3.1-11.7,9.9L76.6,93c-2.1,6.8-3.4,12.8-3,13.4c0.2,0.3,0.5,0.7,0.7,1.1c2.9,5.5,0.8,12.3-4.7,15.2
	c-5.5,2.9-12.3,0.8-15.2-4.7c-2.9-5.5-0.8-12.3,4.7-15.2c0.2-0.1,0.5-0.3,0.7-0.4c0.4-0.2,1.6-3.1,2.6-6.4c1-3.4,1.9-6.1,1.9-6.1
	c0.1-0.4,0.2-0.7,0.3-1.1l5.6-19.9l-5.9,12.2c-0.7-2.3-1.9-2.4-4.4-0.6c-1.5,1.1-4.1,3.3-5.3,4.2c-2.3,1.7-4.3,4.9-5.3,6.9
	c-0.6,1.2-1.5,2.2-2.5,3.1c-4.3,3.5-10.5,2.8-14-1.5c-3.5-4.3-2.8-10.5,1.5-14c1.2-1,2.7-1.7,4.1-2c2.5-0.5,11-5.7,16.1-9.4
	c0.9-0.7,1.7-1.3,2.3-1.9l13.7-10.4l-11.9,6.4c0,0-1.2-0.1-2.7,0c-4.4,0.5-8.9,1.1-9.7,2.2c-0.5,0.6-1.1,1.2-1.8,1.7
	c-4,2.9-9.5,2-12.4-2c-2.9-4-2-9.5,2-12.4c1.6-1.2,3.5-1.7,5.4-1.7c3.2,0.1,11.6,1.8,18.6,0.5l1.8-0.3c7-1.2,15.4-7.4,18.8-13.7
	c0,0,3.3-5.8,7.3-12.9c4-7.1,3.7-14.9-0.7-17.4l-8-4.5c-4-2.3-10.6-2.3-14.7,0L7.3,32.8C3.3,35,0,40.7,0,45.3V106
	c0,4.6,3.3,10.3,7.3,12.6l55.1,31c4,2.3,10.6,2.3,14.7,0l54.9-31c4-2.3,7.3-7.9,7.3-12.6V45.3c0-4.6-3.3-10.3-7.3-12.6
	C132,32.7,127.9,30.4,122.9,27.6z"/>
</svg>
